<svg width="41" height="30" viewBox="0 0 41 30" fill="none" xmlns="http://www.w3.org/2000/svg">
<path d="M10.1333 7.00159C22.2644 -5.59603 36.2617 7.00159 36.2617 7.00159C36.2617 7.00159 22.2644 19.5992 10.1333 7.00159Z" fill="#36C63F"/>
<path d="M27.8938 12.196C32.954 10.6073 36.4454 7.49925 36.5916 7.36769L37 7.00006L36.5916 6.63244C36.4454 6.50087 32.954 3.39274 27.8938 1.80404C24.902 0.864788 21.9897 0.661537 19.2377 1.20004C15.858 1.86129 12.7256 3.64642 9.92432 6.50543L5 6.50543L5 7.49463L9.92432 7.49463C12.7257 10.3536 15.8579 12.1388 19.2377 12.8C21.9897 13.3385 24.9021 13.1353 27.8938 12.196ZM19.4097 11.8258C16.5163 11.256 13.806 9.80057 11.3384 7.49463L18.3259 7.49463L20.9805 10.1493L21.6798 9.44982L19.7247 7.49469L25.5294 7.49469L25.5294 6.5055L22.0575 6.5055L24.0127 4.5503L23.3133 3.85092L20.6587 6.5055L15.992 6.5055L17.4806 5.01687L16.7812 4.31749L14.5931 6.50556L11.3384 6.50556C13.806 4.19961 16.5163 2.74417 19.4097 2.17429C21.9942 1.66529 24.7388 1.8551 27.5674 2.73842C31.4272 3.9438 34.4068 6.133 35.4887 7.00013C34.4067 7.86732 31.4272 10.0564 27.5674 11.2618C24.7389 12.1451 21.9942 12.3349 19.4097 11.8258Z" fill="#009F06"/>
<path opacity="0.3" d="M27.3945 7.49332L27.3945 6.50421L26.4615 6.50421L26.4615 7.49332L27.3945 7.49332Z" fill="white"/>
<path opacity="0.2" d="M29.2617 7.49332L29.2617 6.50421L28.3287 6.50421L28.3287 7.49332L29.2617 7.49332Z" fill="#1A1A1A"/>
<path d="M0.987 29.64C0.891667 29.64 0.779 29.6097 0.649 29.549C0.510333 29.4883 0.393333 29.367 0.298 29.185C0.194 29.0117 0.142 28.7473 0.142 28.392C0.142 28.0193 0.207 27.5297 0.337 26.923C0.458333 26.325 0.631667 25.662 0.857 24.934C1.07367 24.1973 1.32933 23.4433 1.624 22.672C1.92733 21.9007 2.248 21.1597 2.586 20.449C2.93267 19.7297 3.288 19.084 3.652 18.512C4.02467 17.94 4.393 17.485 4.757 17.147C5.121 16.809 5.472 16.64 5.81 16.64C6.03533 16.64 6.18267 16.7093 6.252 16.848C6.32133 16.978 6.356 17.1297 6.356 17.303C6.356 17.6757 6.252 18.083 6.044 18.525C5.84467 18.967 5.576 19.4133 5.238 19.864C4.9 20.306 4.51867 20.7263 4.094 21.125C3.678 21.5237 3.249 21.866 2.807 22.152C2.77233 22.2387 2.73767 22.3253 2.703 22.412C2.66833 22.4987 2.63367 22.5853 2.599 22.672C2.69433 22.7067 2.768 22.7673 2.82 22.854C2.88067 22.9407 2.91533 23.0317 2.924 23.127C2.99333 23.4997 3.06267 23.8333 3.132 24.128C3.20133 24.414 3.30533 24.6393 3.444 24.804C3.59133 24.9687 3.79933 25.051 4.068 25.051C4.37133 25.051 4.64 24.9383 4.874 24.713C5.108 24.4877 5.34633 24.1713 5.589 23.764L5.875 23.972C5.59767 24.5267 5.28567 24.934 4.939 25.194C4.59233 25.4453 4.28033 25.571 4.003 25.571C3.85567 25.571 3.69967 25.5407 3.535 25.48C3.379 25.4193 3.22733 25.3327 3.08 25.22C3.07133 25.7573 3.00633 26.286 2.885 26.806C2.77233 27.3347 2.61633 27.8113 2.417 28.236C2.21767 28.6607 1.99233 28.9987 1.741 29.25C1.49833 29.51 1.247 29.64 0.987 29.64ZM1.351 28.834C1.44633 28.834 1.546 28.7517 1.65 28.587C1.76267 28.4223 1.871 28.2057 1.975 27.937C2.079 27.6683 2.17433 27.3693 2.261 27.04C2.34767 26.7193 2.417 26.3987 2.469 26.078C2.521 25.766 2.547 25.48 2.547 25.22C2.547 24.9687 2.51667 24.7477 2.456 24.557C2.404 24.3577 2.30867 24.1367 2.17 23.894C1.97067 24.492 1.793 25.0683 1.637 25.623C1.481 26.1777 1.35967 26.6803 1.273 27.131C1.18633 27.5903 1.143 27.9717 1.143 28.275C1.143 28.6477 1.21233 28.834 1.351 28.834ZM3.184 21.242C3.71267 20.748 4.16333 20.267 4.536 19.799C4.90867 19.331 5.19033 18.9193 5.381 18.564C5.58033 18.2 5.68 17.9443 5.68 17.797C5.68 17.7277 5.64533 17.693 5.576 17.693C5.368 17.693 5.12967 17.8533 4.861 18.174C4.59233 18.486 4.315 18.9107 4.029 19.448C3.743 19.9853 3.46133 20.5833 3.184 21.242ZM6.01902 26.611C5.73302 26.611 5.48602 26.5157 5.27802 26.325C5.06135 26.1343 4.95302 25.8483 4.95302 25.467C4.95302 25.1637 5.02235 24.8343 5.16102 24.479C5.29968 24.1237 5.49035 23.7727 5.73302 23.426C5.97568 23.0793 6.25302 22.7673 6.56502 22.49C6.87702 22.204 7.21068 21.9743 7.56602 21.801C7.92135 21.6277 8.27668 21.541 8.63202 21.541C9.00468 21.541 9.32102 21.6363 9.58102 21.827C9.84102 22.0177 9.97102 22.269 9.97102 22.581C9.97102 22.815 9.88868 22.984 9.72402 23.088C9.55935 23.192 9.36435 23.2223 9.13902 23.179C9.15635 23.101 9.16935 23.023 9.17802 22.945C9.19535 22.867 9.20402 22.7847 9.20402 22.698C9.20402 22.5247 9.16935 22.3687 9.10002 22.23C9.03068 22.0913 8.88335 22.022 8.65802 22.022C8.41535 22.022 8.16835 22.1043 7.91702 22.269C7.66568 22.4337 7.42302 22.6503 7.18902 22.919C6.96368 23.179 6.76002 23.4693 6.57802 23.79C6.39602 24.102 6.25302 24.4097 6.14902 24.713C6.04502 25.0163 5.99302 25.2893 5.99302 25.532C5.99302 25.8093 6.09268 25.948 6.29202 25.948C6.49135 25.948 6.71235 25.8527 6.95502 25.662C7.19768 25.4627 7.44035 25.2157 7.68302 24.921C7.93435 24.6263 8.17268 24.3273 8.39802 24.024C8.62335 23.712 8.81835 23.4477 8.98302 23.231C9.00902 23.1877 9.04368 23.166 9.08702 23.166C9.12168 23.1747 9.18668 23.1963 9.28202 23.231C9.38602 23.257 9.48135 23.3003 9.56802 23.361C9.65468 23.4217 9.69802 23.4997 9.69802 23.595C9.69802 23.6817 9.65902 23.7943 9.58102 23.933C9.51168 24.063 9.42502 24.2103 9.32102 24.375C9.22568 24.531 9.13902 24.6913 9.06102 24.856C8.99168 25.012 8.95702 25.1637 8.95702 25.311C8.95702 25.4237 8.98735 25.532 9.04802 25.636C9.10868 25.7313 9.20835 25.779 9.34702 25.779C9.55502 25.779 9.84535 25.6273 10.218 25.324C10.5993 25.012 10.985 24.4877 11.375 23.751L11.622 23.998C11.414 24.466 11.1627 24.882 10.868 25.246C10.582 25.6013 10.2787 25.8787 9.95802 26.078C9.63735 26.286 9.31235 26.39 8.98302 26.39C8.62768 26.39 8.36335 26.2773 8.19002 26.052C8.01668 25.8267 7.92135 25.584 7.90402 25.324C7.90402 25.3067 7.90402 25.2937 7.90402 25.285C7.90402 25.2763 7.90402 25.2677 7.90402 25.259C7.55735 25.675 7.23668 26.0043 6.94202 26.247C6.65602 26.4897 6.34835 26.611 6.01902 26.611ZM13.4724 26.338C13.1517 26.338 12.8917 26.2513 12.6924 26.078C12.493 25.9133 12.3934 25.688 12.3934 25.402C12.3934 25.1593 12.454 24.8993 12.5754 24.622C12.6967 24.3447 12.818 24.0717 12.9394 23.803C13.0694 23.5343 13.1344 23.296 13.1344 23.088C13.1344 22.8887 13.0694 22.724 12.9394 22.594C12.8094 22.4553 12.6577 22.3427 12.4844 22.256C12.2937 22.7327 12.077 23.1963 11.8344 23.647C11.6004 24.089 11.4097 24.4357 11.2624 24.687L11.0674 24.31C11.1887 24.0847 11.349 23.764 11.5484 23.348C11.7477 22.932 11.9384 22.4683 12.1204 21.957C12.0337 21.8703 11.9904 21.7533 11.9904 21.606C11.9904 21.3807 12.0597 21.1683 12.1984 20.969C12.337 20.7697 12.4714 20.67 12.6014 20.67C12.7054 20.67 12.779 20.7307 12.8224 20.852C12.8744 20.9647 12.9004 21.0427 12.9004 21.086C12.9004 21.1293 12.8787 21.2073 12.8354 21.32C12.8007 21.4327 12.7747 21.515 12.7574 21.567C12.766 21.6623 12.8397 21.7577 12.9784 21.853C13.1257 21.9397 13.2904 22.0437 13.4724 22.165C13.6544 22.2863 13.8147 22.438 13.9534 22.62C14.092 22.802 14.1614 23.0317 14.1614 23.309C14.1614 23.5603 14.105 23.816 13.9924 24.076C13.8797 24.336 13.767 24.5787 13.6544 24.804C13.5417 25.0293 13.4854 25.2243 13.4854 25.389C13.4854 25.5103 13.5157 25.5927 13.5764 25.636C13.6457 25.6707 13.7237 25.688 13.8104 25.688C14.0184 25.688 14.235 25.6273 14.4604 25.506C14.6857 25.376 14.9067 25.2113 15.1234 25.012C15.34 24.8127 15.5307 24.6047 15.6954 24.388C15.86 24.1627 15.9857 23.959 16.0724 23.777L16.3844 24.011C16.2197 24.3837 15.9814 24.752 15.6694 25.116C15.3574 25.4713 15.0107 25.766 14.6294 26C14.248 26.2253 13.8624 26.338 13.4724 26.338ZM22.589 26.403C22.251 26.403 21.9997 26.3033 21.835 26.104C21.6704 25.9047 21.588 25.6663 21.588 25.389C21.588 25.1897 21.6184 24.9903 21.679 24.791C21.7397 24.5917 21.8004 24.3967 21.861 24.206C21.9217 24.0067 21.952 23.829 21.952 23.673C21.952 23.5257 21.9217 23.426 21.861 23.374C21.809 23.3133 21.7397 23.283 21.653 23.283C21.4537 23.283 21.2197 23.4347 20.951 23.738C20.691 24.0413 20.366 24.4833 19.976 25.064C19.8374 25.272 19.7074 25.493 19.586 25.727C19.4647 25.9523 19.3564 26.143 19.261 26.299C19.183 26.299 19.079 26.286 18.949 26.26C18.8277 26.234 18.7194 26.195 18.624 26.143C18.5287 26.0997 18.481 26.039 18.481 25.961C18.481 25.883 18.5244 25.7313 18.611 25.506C18.6977 25.2807 18.7974 25.0207 18.91 24.726C19.0227 24.4227 19.1224 24.128 19.209 23.842C19.2957 23.5473 19.339 23.3003 19.339 23.101C19.339 22.9797 19.3174 22.8843 19.274 22.815C19.2307 22.7457 19.1614 22.711 19.066 22.711C18.884 22.711 18.663 22.8193 18.403 23.036C18.1517 23.2527 17.883 23.5387 17.597 23.894C17.3197 24.2407 17.0554 24.6307 16.804 25.064C16.5614 25.4887 16.362 25.9177 16.206 26.351C16.1107 26.351 15.9937 26.3293 15.855 26.286C15.7164 26.2513 15.595 26.2037 15.491 26.143C15.387 26.091 15.335 26.0433 15.335 26C15.335 25.9913 15.3654 25.87 15.426 25.636C15.4867 25.3933 15.5604 25.0943 15.647 24.739C15.7337 24.3837 15.8247 24.0197 15.92 23.647C16.0154 23.2743 16.0977 22.9493 16.167 22.672C16.193 22.5767 16.2884 22.4943 16.453 22.425C16.6177 22.347 16.7607 22.308 16.882 22.308C17.0034 22.308 17.1074 22.347 17.194 22.425C17.2807 22.503 17.324 22.607 17.324 22.737C17.324 22.8237 17.3067 22.9493 17.272 23.114C17.2374 23.2787 17.194 23.465 17.142 23.673C17.324 23.4303 17.5147 23.192 17.714 22.958C17.922 22.7153 18.1344 22.4987 18.351 22.308C18.5764 22.1173 18.7974 21.9657 19.014 21.853C19.2394 21.7403 19.4604 21.684 19.677 21.684C19.9977 21.684 20.2144 21.801 20.327 22.035C20.4397 22.2603 20.496 22.5073 20.496 22.776C20.496 22.8887 20.4874 23.0013 20.47 23.114C20.4527 23.218 20.4267 23.3263 20.392 23.439C20.366 23.543 20.327 23.6687 20.275 23.816C20.4397 23.5733 20.6174 23.3523 20.808 23.153C21.0074 22.945 21.2197 22.7803 21.445 22.659C21.6704 22.5377 21.9087 22.477 22.16 22.477C22.498 22.477 22.732 22.581 22.862 22.789C22.992 22.9883 23.057 23.2093 23.057 23.452C23.057 23.6773 23.018 23.9157 22.94 24.167C22.8707 24.4097 22.797 24.6437 22.719 24.869C22.6497 25.0857 22.615 25.272 22.615 25.428C22.615 25.5147 22.6367 25.597 22.68 25.675C22.7234 25.7443 22.81 25.779 22.94 25.779C23.174 25.779 23.3994 25.6707 23.616 25.454C23.8327 25.2373 24.032 24.973 24.214 24.661C24.4047 24.3403 24.565 24.037 24.695 23.751L24.916 24.024C24.7774 24.3793 24.5954 24.7433 24.37 25.116C24.1534 25.48 23.8977 25.7833 23.603 26.026C23.3084 26.2773 22.9704 26.403 22.589 26.403ZM25.1001 26.611C24.8141 26.611 24.5671 26.5157 24.3591 26.325C24.1424 26.1343 24.0341 25.8483 24.0341 25.467C24.0341 25.1637 24.1034 24.8343 24.2421 24.479C24.3807 24.1237 24.5714 23.7727 24.8141 23.426C25.0567 23.0793 25.3341 22.7673 25.6461 22.49C25.9581 22.204 26.2917 21.9743 26.6471 21.801C27.0024 21.6277 27.3577 21.541 27.7131 21.541C28.0857 21.541 28.4021 21.6363 28.6621 21.827C28.9221 22.0177 29.0521 22.269 29.0521 22.581C29.0521 22.815 28.9697 22.984 28.8051 23.088C28.6404 23.192 28.4454 23.2223 28.2201 23.179C28.2374 23.101 28.2504 23.023 28.2591 22.945C28.2764 22.867 28.2851 22.7847 28.2851 22.698C28.2851 22.5247 28.2504 22.3687 28.1811 22.23C28.1117 22.0913 27.9644 22.022 27.7391 22.022C27.4964 22.022 27.2494 22.1043 26.9981 22.269C26.7467 22.4337 26.5041 22.6503 26.2701 22.919C26.0447 23.179 25.8411 23.4693 25.6591 23.79C25.4771 24.102 25.3341 24.4097 25.2301 24.713C25.1261 25.0163 25.0741 25.2893 25.0741 25.532C25.0741 25.8093 25.1737 25.948 25.3731 25.948C25.5724 25.948 25.7934 25.8527 26.0361 25.662C26.2787 25.4627 26.5214 25.2157 26.7641 24.921C27.0154 24.6263 27.2537 24.3273 27.4791 24.024C27.7044 23.712 27.8994 23.4477 28.0641 23.231C28.0901 23.1877 28.1247 23.166 28.1681 23.166C28.2027 23.1747 28.2677 23.1963 28.3631 23.231C28.4671 23.257 28.5624 23.3003 28.6491 23.361C28.7357 23.4217 28.7791 23.4997 28.7791 23.595C28.7791 23.6817 28.7401 23.7943 28.6621 23.933C28.5927 24.063 28.5061 24.2103 28.4021 24.375C28.3067 24.531 28.2201 24.6913 28.1421 24.856C28.0727 25.012 28.0381 25.1637 28.0381 25.311C28.0381 25.4237 28.0684 25.532 28.1291 25.636C28.1897 25.7313 28.2894 25.779 28.4281 25.779C28.6361 25.779 28.9264 25.6273 29.2991 25.324C29.6804 25.012 30.0661 24.4877 30.4561 23.751L30.7031 23.998C30.4951 24.466 30.2437 24.882 29.9491 25.246C29.6631 25.6013 29.3597 25.8787 29.0391 26.078C28.7184 26.286 28.3934 26.39 28.0641 26.39C27.7087 26.39 27.4444 26.2773 27.2711 26.052C27.0977 25.8267 27.0024 25.584 26.9851 25.324C26.9851 25.3067 26.9851 25.2937 26.9851 25.285C26.9851 25.2763 26.9851 25.2677 26.9851 25.259C26.6384 25.675 26.3177 26.0043 26.0231 26.247C25.7371 26.4897 25.4294 26.611 25.1001 26.611ZM32.5534 26.338C32.2328 26.338 31.9728 26.2513 31.7734 26.078C31.5741 25.9133 31.4744 25.688 31.4744 25.402C31.4744 25.1593 31.5351 24.8993 31.6564 24.622C31.7778 24.3447 31.8991 24.0717 32.0204 23.803C32.1504 23.5343 32.2154 23.296 32.2154 23.088C32.2154 22.8887 32.1504 22.724 32.0204 22.594C31.8904 22.4553 31.7388 22.3427 31.5654 22.256C31.3748 22.7327 31.1581 23.1963 30.9154 23.647C30.6814 24.089 30.4908 24.4357 30.3434 24.687L30.1484 24.31C30.2698 24.0847 30.4301 23.764 30.6294 23.348C30.8288 22.932 31.0194 22.4683 31.2014 21.957C31.1148 21.8703 31.0714 21.7533 31.0714 21.606C31.0714 21.3807 31.1408 21.1683 31.2794 20.969C31.4181 20.7697 31.5524 20.67 31.6824 20.67C31.7864 20.67 31.8601 20.7307 31.9034 20.852C31.9554 20.9647 31.9814 21.0427 31.9814 21.086C31.9814 21.1293 31.9598 21.2073 31.9164 21.32C31.8818 21.4327 31.8558 21.515 31.8384 21.567C31.8471 21.6623 31.9208 21.7577 32.0594 21.853C32.2068 21.9397 32.3714 22.0437 32.5534 22.165C32.7354 22.2863 32.8958 22.438 33.0344 22.62C33.1731 22.802 33.2424 23.0317 33.2424 23.309C33.2424 23.5603 33.1861 23.816 33.0734 24.076C32.9608 24.336 32.8481 24.5787 32.7354 24.804C32.6228 25.0293 32.5664 25.2243 32.5664 25.389C32.5664 25.5103 32.5968 25.5927 32.6574 25.636C32.7268 25.6707 32.8048 25.688 32.8914 25.688C33.0994 25.688 33.3161 25.6273 33.5414 25.506C33.7668 25.376 33.9878 25.2113 34.2044 25.012C34.4211 24.8127 34.6118 24.6047 34.7764 24.388C34.9411 24.1627 35.0668 23.959 35.1534 23.777L35.4654 24.011C35.3008 24.3837 35.0624 24.752 34.7504 25.116C34.4384 25.4713 34.0918 25.766 33.7104 26C33.3291 26.2253 32.9434 26.338 32.5534 26.338ZM35.4951 29.64C35.2784 29.64 35.0748 29.5707 34.8841 29.432C34.7021 29.302 34.6111 29.0897 34.6111 28.795C34.6111 28.5177 34.6934 28.2663 34.8581 28.041C35.0228 27.8243 35.2351 27.6207 35.4951 27.43C35.7551 27.248 36.0324 27.079 36.3271 26.923C36.6304 26.7757 36.9208 26.637 37.1981 26.507C37.2934 26.2557 37.3974 25.9393 37.5101 25.558C37.6314 25.168 37.7354 24.8083 37.8221 24.479C37.5534 24.8517 37.2674 25.181 36.9641 25.467C36.6608 25.753 36.3228 25.896 35.9501 25.896C35.7941 25.896 35.6294 25.8657 35.4561 25.805C35.2828 25.7357 35.1354 25.623 35.0141 25.467C34.9014 25.3023 34.8451 25.0857 34.8451 24.817C34.8451 24.5917 34.8841 24.3187 34.9621 23.998C35.0488 23.6773 35.1528 23.3653 35.2741 23.062C35.4041 22.75 35.5384 22.4943 35.6771 22.295C35.8158 22.087 35.9371 21.983 36.0411 21.983C36.0931 21.983 36.1668 22.0047 36.2621 22.048C36.3661 22.0827 36.4658 22.1347 36.5611 22.204C36.6564 22.2647 36.7171 22.334 36.7431 22.412C36.6651 22.516 36.5784 22.6677 36.4831 22.867C36.3878 23.0577 36.2968 23.2743 36.2101 23.517C36.1234 23.751 36.0498 23.9807 35.9891 24.206C35.9371 24.4313 35.9111 24.6263 35.9111 24.791C35.9111 24.921 35.9371 25.0337 35.9891 25.129C36.0411 25.2243 36.1408 25.272 36.2881 25.272C36.4788 25.272 36.6738 25.194 36.8731 25.038C37.0811 24.882 37.2804 24.6827 37.4711 24.44C37.6704 24.1973 37.8481 23.9503 38.0041 23.699C38.0214 23.6383 38.0388 23.543 38.0561 23.413C38.0734 23.283 38.1038 23.1487 38.1471 23.01C38.1904 22.8627 38.2641 22.7283 38.3681 22.607C38.4808 22.4857 38.6368 22.425 38.8361 22.425C38.9054 22.425 38.9704 22.4293 39.0311 22.438C39.0918 22.4467 39.1654 22.4597 39.2521 22.477C39.2521 22.607 39.2044 22.8627 39.1091 23.244C39.0224 23.6167 38.9054 24.05 38.7581 24.544C38.6108 25.038 38.4461 25.532 38.2641 26.026C38.6281 25.8787 39.0051 25.636 39.3951 25.298C39.7938 24.9513 40.1144 24.4617 40.3571 23.829L40.5781 24.011C40.4481 24.4443 40.2488 24.8213 39.9801 25.142C39.7201 25.4627 39.4254 25.7357 39.0961 25.961C38.7668 26.1863 38.4331 26.3727 38.0951 26.52C37.8611 27.0833 37.6054 27.6033 37.3281 28.08C37.0594 28.5567 36.7734 28.9337 36.4701 29.211C36.1668 29.497 35.8418 29.64 35.4951 29.64ZM35.3651 29.159C35.5298 29.159 35.7594 28.9857 36.0541 28.639C36.3488 28.2923 36.6478 27.7723 36.9511 27.079C36.6738 27.2177 36.3921 27.378 36.1061 27.56C35.8288 27.7507 35.5948 27.95 35.4041 28.158C35.2134 28.366 35.1181 28.5783 35.1181 28.795C35.1181 28.8817 35.1354 28.964 35.1701 29.042C35.2134 29.12 35.2784 29.159 35.3651 29.159Z" fill="#555555"/>
</svg>
